# xmcd
#
# Track frame offsets:
#	150
#	21610
#	35062
#	51562
#	69985
#	89979
#	108352
#	122275
#	135882
#	157365
#	167802
#	192530
#	209375
#	222202
#	235045
#	251407
#	266372
#	282377
#	300512
#	318655
#
# Disc length: 4498 seconds
# Revision: 0
# Processed by: cddbd v1.5.2PL0 Copyright (c) Steve Scherf et al.
# Submitted via: dBpowerAMP V12.0
#
DISCID=31119014
DTITLE=John Denver - Country Roads Collection
DYEAR=1997
DGENRE=Country
TTITLE0=Rocky Mountain High
TTITLE1=For Baby
TTITLE2=Goodbye Again
TTITLE3=We Don't Live Here No More
TTITLE4=I'd Rather Be A Cowboy
TTITLE5=Farewell Andromeda
TTITLE6=Rocky Mountain Suite
TTITLE7=Annie's Song
TTITLE8=Back Home Again
TTITLE9=Grandma's Feather Bed
TTITLE10=Sweet Surrender
TTITLE11=Eclipse
TTITLE12=Thank God I'm A Country Boy
TTITLE13=This Old Guitar
TTITLE14=Spirit
TTITLE15=Song Of Wyoming
TTITLE16=I'm Sorry
TTITLE17=Windsong
TTITLE18=Looking For Space
TTITLE19=Fly Away
EXTD=
EXTT0=
EXTT1=
EXTT2=
EXTT3=
EXTT4=
EXTT5=
EXTT6=
EXTT7=
EXTT8=
EXTT9=
EXTT10=
EXTT11=
EXTT12=
EXTT13=
EXTT14=
EXTT15=
EXTT16=
EXTT17=
EXTT18=
EXTT19=
PLAYORDER=
